<mxfile host="app.diagrams.net" modified="2024-05-22T02:34:02.608Z" agent="Mozilla/5.0 (Windows NT 10.0; Win64; x64) AppleWebKit/537.36 (KHTML, like Gecko) Chrome/125.0.0.0 Safari/537.36 Edg/125.0.0.0" version="24.4.4" etag="1LWjNpo88bovtGv1MhuA" type="github">
  <diagram name="第 1 页" id="YTh1NH2GV_Iw4QyMmgsU">
    <mxGraphModel>
      <root>
        <mxCell id="0" />
        <mxCell id="1" parent="0" />
      </root>
    </mxGraphModel>
  </diagram>
</mxfile>
